<svg width="32" height="32" viewBox="0 0 32 32" fill="none" xmlns="http://www.w3.org/2000/svg">
  <rect width="32" height="32" rx="8" fill="#6366f1"/>
  <path d="M16 8C12.6863 8 10 10.6863 10 14C10 17.3137 12.6863 20 16 20C19.3137 20 22 17.3137 22 14C22 10.6863 19.3137 8 16 8Z" fill="white"/>
  <path d="M16 12C17.1046 12 18 12.8954 18 14C18 15.1046 17.1046 16 16 16C14.8954 16 14 15.1046 14 14C14 12.8954 14.8954 12 16 12Z" fill="#6366f1"/>
  <path d="M8 22H24C24 25.3137 21.3137 28 18 28H14C10.6863 28 8 25.3137 8 22Z" fill="white"/>
  <circle cx="16" cy="24" r="2" fill="#6366f1"/>
</svg>